<svg xmlns="http://www.w3.org/2000/svg" xmlns:xlink="http://www.w3.org/1999/xlink" width="100%" height="100%" viewBox="0 0 200 200">
  <defs>
    <clipPath id="clip-path">
      <path id="Ring_5" d="M20.9,112.271a2.133,2.133,0,1,1,2.133,2.133A2.135,2.135,0,0,1,20.9,112.271ZM0,104.644a2.136,2.136,0,1,1,2.139,2.132A2.139,2.139,0,0,1,0,104.644ZM74.553,89.417a2.136,2.136,0,1,1,2.133,2.138A2.137,2.137,0,0,1,74.553,89.417Zm4.633-56a2.133,2.133,0,1,1,2.133,2.132A2.13,2.13,0,0,1,79.186,33.418ZM12.588,4.443a2.136,2.136,0,1,1,2.139,2.138A2.137,2.137,0,0,1,12.588,4.443ZM24.545,2.132a2.136,2.136,0,1,1,2.133,2.134A2.133,2.133,0,0,1,24.545,2.132Z" fill="#fff"/>
    </clipPath>
    <linearGradient id="linear-gradient" x1="-0.944" y1="3.502" x2="-0.939" y2="3.502" gradientUnits="objectBoundingBox">
      <stop offset="0" stop-color="#f26d85"/>
      <stop offset="0.33" stop-color="#f26d85"/>
      <stop offset="0.67" stop-color="#82d9d0"/>
      <stop offset="1" stop-color="#82d9d0"/>
    </linearGradient>
    <linearGradient id="linear-gradient-2" x1="-1.336" y1="4.82" x2="-1.339" y2="4.823" gradientUnits="objectBoundingBox">
      <stop offset="0" stop-color="#30a9d9"/>
      <stop offset="1" stop-color="#30a9d9" stop-opacity="0"/>
    </linearGradient>
    <linearGradient id="linear-gradient-3" x1="-2.546" y1="4.156" x2="-2.544" y2="4.159" xlink:href="#linear-gradient-2"/>
    <linearGradient id="linear-gradient-4" x1="-1.935" y1="4.711" x2="-1.938" y2="4.708" gradientUnits="objectBoundingBox">
      <stop offset="0" stop-color="#fa8f3c"/>
      <stop offset="1" stop-color="#fa8f3c" stop-opacity="0"/>
    </linearGradient>
    <linearGradient id="linear-gradient-5" x1="-2.23" y1="5.303" x2="-2.227" y2="5.3" xlink:href="#linear-gradient-4"/>
    <linearGradient id="linear-gradient-6" y1="0.5" x2="1" y2="0.5" gradientUnits="objectBoundingBox">
      <stop offset="0" stop-color="#f26d85"/>
      <stop offset="0.334" stop-color="#f26d85"/>
      <stop offset="0.668" stop-color="#82d9d0"/>
      <stop offset="1" stop-color="#82d9d0"/>
    </linearGradient>
    <linearGradient id="linear-gradient-7" x1="0.8" y1="0.852" x2="0.328" y2="0.502" xlink:href="#linear-gradient-2"/>
    <linearGradient id="linear-gradient-8" x1="0.2" y1="0.852" x2="0.672" y2="0.502" xlink:href="#linear-gradient-2"/>
    <linearGradient id="linear-gradient-9" x1="0.8" y1="0.148" x2="0.328" y2="0.498" xlink:href="#linear-gradient-4"/>
    <linearGradient id="linear-gradient-10" x1="0.2" y1="0.148" x2="0.672" y2="0.498" xlink:href="#linear-gradient-4"/>
    <clipPath id="clip-path-2">
      <path id="Ring_4" d="M64.115,131.74h-.33a1.867,1.867,0,0,1,.021-3.733h.309A61.916,61.916,0,0,0,124.557,80.37a1.855,1.855,0,0,1,2.246-1.377,1.877,1.877,0,0,1,1.393,2.252,65.628,65.628,0,0,1-64.07,50.5Zm-17.6-2.367A65.783,65.783,0,0,1,.051,81.234a1.867,1.867,0,1,1,3.633-.864,62.1,62.1,0,0,0,43.834,45.409,1.863,1.863,0,0,1-.5,3.658A2.023,2.023,0,0,1,46.512,129.373ZM1.436,52.742A1.858,1.858,0,0,1,.061,50.49,65.229,65.229,0,0,1,12.5,24.955a1.868,1.868,0,1,1,2.924,2.326A61.466,61.466,0,0,0,3.684,51.365,1.857,1.857,0,0,1,1.873,52.8,2.366,2.366,0,0,1,1.436,52.742Zm123.1-1.462c-.437-1.834-.977-3.669-1.582-5.453a1.864,1.864,0,0,1,3.529-1.2c.641,1.889,1.209,3.827,1.676,5.781a1.865,1.865,0,0,1-1.377,2.251,2.238,2.238,0,0,1-.437.051A1.859,1.859,0,0,1,124.537,51.28ZM111.99,26.267A62.178,62.178,0,0,0,84.094,7.02,1.865,1.865,0,0,1,85.3,3.49a65.935,65.935,0,0,1,29.566,20.4,1.863,1.863,0,0,1-1.436,3.053A1.9,1.9,0,0,1,111.99,26.267ZM35.676,8.5a1.871,1.871,0,0,1,.92-2.476A65.307,65.307,0,0,1,64.125,0a66.635,66.635,0,0,1,13.43,1.366A1.868,1.868,0,1,1,76.8,5.025,63.206,63.206,0,0,0,64.125,3.738,61.711,61.711,0,0,0,38.162,9.4a1.83,1.83,0,0,1-.775.169l-.016.015A1.874,1.874,0,0,1,35.676,8.5Z" transform="translate(0)" fill="#fff"/>
    </clipPath>
    <clipPath id="clip-path-3">
      <path id="Ring_3" d="M70.2,148.689h-.1a74.56,74.56,0,0,1-45.115-18.665,1.867,1.867,0,0,1,2.484-2.787,70.8,70.8,0,0,0,42.854,17.73,1.87,1.87,0,0,1-.109,3.736Zm8.469,0a1.868,1.868,0,0,1-.1-3.732,70.814,70.814,0,0,0,42.771-17.709,1.866,1.866,0,0,1,2.473,2.8,74.555,74.555,0,0,1-45.037,18.646Zm48.58-24.552a1.869,1.869,0,0,1-.148-2.637,70.794,70.794,0,0,0,14.758-68.227,1.866,1.866,0,1,1,3.563-1.109,74.516,74.516,0,0,1-15.539,71.823,1.858,1.858,0,0,1-1.4.617l.01.01A1.862,1.862,0,0,1,127.252,124.138Zm-107.068.318a1.867,1.867,0,0,1-1.393-.632l-.016-.016c-.051-.048-.1-.1-.15-.153A74.3,74.3,0,0,1,6.65,105.172l-.041-.089c-.035-.082-.074-.163-.109-.244-.025-.056-.049-.111-.074-.167s-.051-.109-.072-.165c-.037-.079-.072-.161-.107-.241-.014-.033-.029-.067-.045-.1-.045-.1-.09-.206-.135-.31a.116.116,0,0,1-.008-.021A74.152,74.152,0,0,1,.482,82.872a.908.908,0,0,1-.012-.1c-.012-.1-.025-.208-.035-.312-.008-.071-.014-.141-.023-.212s-.014-.135-.02-.2c-.014-.11-.023-.223-.033-.333,0-.027-.008-.054-.01-.081Q0,78.049,0,74.417v-.01A73.562,73.562,0,0,1,15.975,28.354c.01-.014.02-.025.031-.039q1.257-1.594,2.609-3.126a1.868,1.868,0,0,1,2.8,2.474Q20.143,29.1,18.957,30.6c-.016.024-.035.047-.053.069-.615.781-1.217,1.572-1.795,2.373A70.52,70.52,0,0,0,4.086,67.4q-.337,3.473-.338,7.017a70.5,70.5,0,0,0,17.844,46.934,1.87,1.87,0,0,1-.148,2.638,1.844,1.844,0,0,1-1.234.468Zm108.74-96.037a1.834,1.834,0,0,1-1.4-.637,71.465,71.465,0,0,0-24-17.795,1.869,1.869,0,1,1,1.547-3.4,75.012,75.012,0,0,1,25.258,18.73,1.87,1.87,0,0,1-1.4,3.1ZM39.012,11.043a1.868,1.868,0,0,1,.777-2.518A74.623,74.623,0,0,1,82.98.493a1.869,1.869,0,0,1-.428,3.713,71.708,71.708,0,0,0-8.146-.468,70.718,70.718,0,0,0-32.875,8.1,1.831,1.831,0,0,1-.867.214A1.856,1.856,0,0,1,39.012,11.043ZM94.33,5.3A2.133,2.133,0,1,1,96.467,7.43,2.136,2.136,0,0,1,94.33,5.3Z" fill="#fff"/>
    </clipPath>
    <clipPath id="clip-path-4">
      <path id="Ring_2" d="M82.926,165.854c-2.445,0-4.91-.1-7.32-.318a1.867,1.867,0,1,1,.334-3.72c2.3.2,4.662.308,7,.308a78.321,78.321,0,0,0,34.922-8.1,1.866,1.866,0,0,1,1.643,3.352,82.207,82.207,0,0,1-36.564,8.477Zm-16-1.534A83.417,83.417,0,0,1,2.963,104.991a1.865,1.865,0,1,1,3.6-.992A79.688,79.688,0,0,0,67.637,160.65a1.862,1.862,0,0,1-.363,3.69l.016.015A2.283,2.283,0,0,1,66.926,164.32ZM126.137,153.4a1.867,1.867,0,0,1-.992-3.446A78.977,78.977,0,0,0,159.5,103.272a1.866,1.866,0,0,1,3.605.961,82.717,82.717,0,0,1-35.967,48.887,1.883,1.883,0,0,1-1,.289ZM1.111,96.51a83.452,83.452,0,0,1,4.4-43.4,1.866,1.866,0,0,1,3.48,1.345A78.793,78.793,0,0,0,3.719,82.918,80.141,80.141,0,0,0,4.775,95.9a1.867,1.867,0,0,1-1.533,2.146,1.552,1.552,0,0,1-.309.021l.012.01A1.859,1.859,0,0,1,1.111,96.51Zm161.953.642a1.373,1.373,0,0,1-.283-.02A1.872,1.872,0,0,1,161.213,95c.391-2.58.656-5.224.795-7.858a1.871,1.871,0,0,1,3.736.188c-.15,2.755-.43,5.528-.842,8.238a1.871,1.871,0,0,1-1.848,1.588Zm-1.057-18.6a78.914,78.914,0,0,0-4.66-22.8,1.863,1.863,0,0,1,3.5-1.279,82.434,82.434,0,0,1,4.875,23.875,1.87,1.87,0,0,1-1.762,1.963h-.1l.02.011A1.876,1.876,0,0,1,162.008,78.556ZM9.887,47.658a1.879,1.879,0,0,1-.812-2.521A83.51,83.51,0,0,1,67.578,1.4a1.866,1.866,0,0,1,.678,3.67A79.717,79.717,0,0,0,12.4,46.836a1.88,1.88,0,0,1-1.668,1.012l.014.009A1.964,1.964,0,0,1,9.887,47.658ZM145.145,33.9A79.257,79.257,0,0,0,98.391,5.221a1.869,1.869,0,1,1,.729-3.666,82.93,82.93,0,0,1,48.959,30.017,1.87,1.87,0,0,1-1.457,3.027l-.012.011A1.843,1.843,0,0,1,145.145,33.9ZM90.438,4.069h.01Zm-.164,0A80.712,80.712,0,0,0,76.447,4,1.869,1.869,0,0,1,76.139.271,85.1,85.1,0,0,1,90.605.35a1.864,1.864,0,0,1-.168,3.72Z" transform="translate(0)" fill="#fff"/>
    </clipPath>
    <clipPath id="clip-path-5">
      <path id="Ring_1" d="M91.467,182.938a91.44,91.44,0,0,1-26.74-3.968,1.87,1.87,0,1,1,1.1-3.574,88.355,88.355,0,0,0,49.023.664,1.864,1.864,0,1,1,.992,3.594,91.58,91.58,0,0,1-24.365,3.284ZM55.928,174.67a2.134,2.134,0,1,1,2.133,2.133A2.131,2.131,0,0,1,55.928,174.67Zm-7.223-3.325a2.133,2.133,0,1,1,2.133,2.134A2.133,2.133,0,0,1,48.705,171.345Zm84.344-.458a1.86,1.86,0,0,1,.738-2.538,88.535,88.535,0,0,0,37.738-40.909,1.865,1.865,0,1,1,3.4,1.526,92.293,92.293,0,0,1-39.338,42.644,1.89,1.89,0,0,1-.9.238l-.012.011A1.864,1.864,0,0,1,133.049,170.887Zm-94.363-5.13a1.846,1.846,0,0,1-1.1-.363,92.139,92.139,0,0,1-27.172-31.5,1.866,1.866,0,1,1,3.311-1.725A88.67,88.67,0,0,0,39.8,162.383a1.871,1.871,0,0,1-1.1,3.385Zm-33.48-43.8A91.218,91.218,0,0,1,0,91.467,92.589,92.589,0,0,1,1.34,75.745a1.869,1.869,0,0,1,3.686.628A88.655,88.655,0,0,0,3.734,91.456a87.447,87.447,0,0,0,4.99,29.25,1.871,1.871,0,0,1-1.143,2.383,1.765,1.765,0,0,1-.619.105v.009A1.863,1.863,0,0,1,5.205,121.957Zm171.848-1.974a2.169,2.169,0,0,1-.559-.084,1.874,1.874,0,0,1-1.227-2.338,88.286,88.286,0,0,0,.783-49.527,1.864,1.864,0,1,1,3.594-.992,92.042,92.042,0,0,1-.822,51.641,1.86,1.86,0,0,1-1.779,1.312Zm-3.693-59.77a2.133,2.133,0,1,1,2.133,2.133A2.132,2.132,0,0,1,173.359,60.214ZM7.346,55.309A2.134,2.134,0,1,1,9.48,57.441,2.137,2.137,0,0,1,7.346,55.309Zm4.8-5.588a1.864,1.864,0,0,1-.723-2.542A91.337,91.337,0,0,1,35.969,18.752a1.864,1.864,0,1,1,2.258,2.966A87.493,87.493,0,0,0,14.674,48.982a1.853,1.853,0,0,1-1.629.958l.01.015A1.874,1.874,0,0,1,12.146,49.721ZM149.469,25.63a87.761,87.761,0,0,0-14.062-10.123,1.866,1.866,0,0,1,1.869-3.23,92.443,92.443,0,0,1,14.656,10.553,1.865,1.865,0,0,1-1.229,3.265v.01A1.82,1.82,0,0,1,149.469,25.63ZM41.145,15.905a2.133,2.133,0,1,1,2.133,2.134A2.129,2.129,0,0,1,41.145,15.905Zm9.182-2.188h.014Zm-1.65-1.012a1.871,1.871,0,0,1,.8-2.518A91.767,91.767,0,0,1,107.746,1.45a1.864,1.864,0,1,1-.662,3.669A88.77,88.77,0,0,0,91.459,3.733,86.755,86.755,0,0,0,51.182,13.5a1.909,1.909,0,0,1-.85.215A1.873,1.873,0,0,1,48.676,12.705Zm71.33-5.433a2.133,2.133,0,1,1,2.133,2.133A2.132,2.132,0,0,1,120.006,7.272Z" transform="translate(0)" fill="#fff"/>
    </clipPath>
    <clipPath id="clip-path-6">
      <path id="Ring_0" d="M87.43,199.232a1.866,1.866,0,0,1,.459-3.7,96.315,96.315,0,0,0,21.088.31c1.656-.159,3.334-.349,4.977-.6h.01a1.865,1.865,0,0,1,.533,3.691c-1.707.249-3.447.459-5.164.619-3.168.3-6.348.449-9.514.449A99.822,99.822,0,0,1,87.43,199.232ZM71.4,194.553a2.133,2.133,0,1,1,2.131,2.13A2.131,2.131,0,0,1,71.4,194.553Zm59.285-2.071a2.133,2.133,0,1,1,2.135,2.131A2.135,2.135,0,0,1,130.686,192.481Zm-66.465-.214a2.134,2.134,0,1,1,2.137,2.135A2.136,2.136,0,0,1,64.221,192.268Zm83.258-6.381a1.858,1.858,0,0,1,.684-2.545,97.167,97.167,0,0,0,13.947-9.849v-.009a1.87,1.87,0,0,1,2.426,2.848,99.522,99.522,0,0,1-14.5,10.228,1.9,1.9,0,0,1-.937.26A1.854,1.854,0,0,1,147.479,185.887ZM33.789,175.011a100.338,100.338,0,0,1-14.828-16.29,1.865,1.865,0,0,1,3.02-2.189,95.939,95.939,0,0,0,14.273,15.68,1.865,1.865,0,1,1-2.465,2.8ZM168.438,170.3a1.868,1.868,0,0,1-.021-2.639,96.761,96.761,0,0,0,10.932-13.247,1.865,1.865,0,0,1,2.594-.479l.012-.01a1.858,1.858,0,0,1,.479,2.589,99.729,99.729,0,0,1-11.35,13.76,1.88,1.88,0,0,1-1.332.555A1.86,1.86,0,0,1,168.438,170.3Zm14.293-21.059a2.135,2.135,0,1,1,2.135,2.131A2.137,2.137,0,0,1,182.73,149.237ZM8.016,139.688a2.133,2.133,0,1,1,2.135,2.135A2.131,2.131,0,0,1,8.016,139.688Zm180.047-1.053a2.136,2.136,0,1,1,2.137,2.131A2.138,2.138,0,0,1,188.063,138.636Zm6.723-13.261a1.858,1.858,0,0,1-1.363-2.261,96.156,96.156,0,0,0,2.354-32.163c-.053-.479-.094-.948-.146-1.418a1.865,1.865,0,1,1,3.709-.4c.055.488.111.978.15,1.471h.012a99.967,99.967,0,0,1-2.451,33.407,1.873,1.873,0,0,1-1.816,1.422A1.7,1.7,0,0,1,194.785,125.375ZM1.52,117.821c-.5-2.773-.889-5.612-1.152-8.417-.158-1.642-.279-3.317-.354-4.969a1.87,1.87,0,1,1,3.736-.17c.064,1.6.18,3.209.33,4.79.254,2.709.629,5.438,1.111,8.106a1.869,1.869,0,0,1-1.506,2.166,1.228,1.228,0,0,1-.328.03A1.861,1.861,0,0,1,1.52,117.821Zm.275-20.31H1.783A1.864,1.864,0,0,1,0,95.571,100.769,100.769,0,0,1,1.3,83.337a1.871,1.871,0,0,1,3.691.619A95.926,95.926,0,0,0,3.75,95.73a1.871,1.871,0,0,1-1.867,1.781Zm192.539-16.35v.011a96.425,96.425,0,0,0-6.225-19.832,1.87,1.87,0,0,1,3.424-1.507A100.378,100.378,0,0,1,198,80.434a1.881,1.881,0,0,1-1.471,2.2,2.337,2.337,0,0,1-.363.03A1.883,1.883,0,0,1,194.334,81.162ZM4.752,68.6A2.134,2.134,0,1,1,6.889,70.74,2.134,2.134,0,0,1,4.752,68.6Zm2.879-7.373a2.133,2.133,0,1,1,2.137,2.135A2.131,2.131,0,0,1,7.631,61.231ZM11.238,53.7a2.134,2.134,0,1,1,2.135,2.135A2.135,2.135,0,0,1,11.238,53.7Zm172.75-.675a2.136,2.136,0,1,1,2.135,2.136A2.134,2.134,0,0,1,183.988,53.028ZM21.49,41.011a1.869,1.869,0,0,1-.324-2.624A100.328,100.328,0,0,1,41.148,19.078l.02.011a1.864,1.864,0,1,1,2.189,3.018,96.408,96.408,0,0,0-19.248,18.58,1.868,1.868,0,0,1-2.619.324Zm148.736-6.785.012.01a94.941,94.941,0,0,0-9.012-8.471,1.865,1.865,0,1,1,2.371-2.879,101.464,101.464,0,0,1,9.365,8.79,1.864,1.864,0,0,1-.086,2.635,1.91,1.91,0,0,1-1.281.5A1.854,1.854,0,0,1,170.227,34.226Zm-15.754-14.4a2.136,2.136,0,1,1,2.135,2.136A2.134,2.134,0,0,1,154.473,19.822Zm-9.6-5.917a2.132,2.132,0,1,1,2.135,2.131A2.13,2.13,0,0,1,144.875,13.905Zm-90.67-1.8a2.132,2.132,0,1,1,2.135,2.136A2.128,2.128,0,0,1,54.205,12.109Zm7.676-3.5a2.136,2.136,0,1,1,2.137,2.136A2.138,2.138,0,0,1,61.881,8.611Zm7.953-2.045a1.851,1.851,0,0,1,1.248-2.325A101.415,101.415,0,0,1,104.273.091a1.863,1.863,0,0,1-.158,3.722,97.866,97.866,0,0,0-13.236.354A96.257,96.257,0,0,0,72.145,7.813l.014.011a1.8,1.8,0,0,1-.533.075A1.862,1.862,0,0,1,69.834,6.566Zm45.574-3.117a2.136,2.136,0,1,1,2.137,2.134A2.134,2.134,0,0,1,115.408,3.449Z" fill="#fff"/>
    </clipPath>
    <clipPath id="clip-Logo_l_dark">
      <rect width="200" height="200"/>
    </clipPath>
  </defs>
  <g id="Logo_l_dark" clip-path="url(#clip-Logo_l_dark)">
    <g id="Logo_saxony-ai_l_dark" transform="translate(0.051)">
      <rect id="Size" width="200" height="200" transform="translate(-0.051)" fill="none"/>
      <g id="Rings">
        <g id="Ring_5-2" data-name="Ring_5" transform="translate(68.719 42.579)" clip-path="url(#clip-path)">
          <g id="Raiinbow_Gradient" transform="translate(-39.533 11.845) rotate(-12.16)">
            <rect id="Red-Cyan" width="66.904" height="66.904" transform="translate(19.855 85.257) rotate(-77.84)" fill="url(#linear-gradient)"/>
            <g id="Blue" transform="translate(19.846 48.157)">
              <path id="Pfad_1266" data-name="Pfad 1266" d="M.006,37.1l32.7,7.049L42.215,0,2.467,25.656,0,37.1Z" transform="translate(0 0.006)" fill="url(#linear-gradient-2)"/>
              <path id="Pfad_1268" data-name="Pfad 1268" d="M32.7,51.193,0,44.145,9.51,0,35.166,39.748,32.7,51.193Z" transform="translate(32.711 0)" fill="url(#linear-gradient-3)"/>
            </g>
            <g id="Yellow" transform="translate(31.483 19.854)">
              <path id="Pfad_1266-2" data-name="Pfad 1266-2" d="M2.467,0l32.7,7.049-9.51,44.145L0,11.445Z" fill="url(#linear-gradient-4)"/>
              <path id="Pfad_1267" data-name="Pfad 1267" d="M42.209,7.049,9.51,0,0,44.145,39.748,18.488,42.215,7.043Z" transform="translate(25.656 7.049)" fill="url(#linear-gradient-5)"/>
            </g>
            <g id="Gradient" transform="translate(0 0)">
              <rect id="Red-Cyan-2" data-name="Red-Cyan" width="119.471" height="119.471" fill="url(#linear-gradient-6)"/>
              <g id="Blue-2" data-name="Blue" transform="translate(0 38.828)">
                <path id="Path_1266" data-name="Path 1266" d="M0,80.643H59.736V0L0,59.736Z" fill="url(#linear-gradient-7)"/>
                <path id="Path_1268" data-name="Path 1268" d="M59.736,80.643H0V0L59.736,59.736Z" transform="translate(59.736 0)" fill="url(#linear-gradient-8)"/>
              </g>
              <g id="Yellow-2" data-name="Yellow">
                <path id="Path_1266-2" data-name="Path 1266" d="M0,0H59.736V80.643L0,20.907Z" fill="url(#linear-gradient-9)"/>
                <path id="Path_1267" data-name="Path 1267" d="M59.736,0H0V80.643L59.736,20.907Z" transform="translate(59.736 0)" fill="url(#linear-gradient-10)"/>
              </g>
            </g>
          </g>
        </g>
        <g id="Ring_4-2" data-name="Ring_4" transform="translate(35.808 34.126)" clip-path="url(#clip-path-2)">
          <g id="Gradient-2" data-name="Gradient" transform="matrix(0.924, -0.383, 0.383, 0.924, -24.865, 29.22)">
            <rect id="Red-Cyan-3" data-name="Red-Cyan" width="136.538" height="136.538" fill="url(#linear-gradient-6)"/>
            <g id="Blue-3" data-name="Blue" transform="translate(0 44.375)">
              <path id="Path_1266-3" data-name="Path 1266" d="M0,92.163H68.269V0L0,68.269Z" fill="url(#linear-gradient-7)"/>
              <path id="Path_1268-2" data-name="Path 1268" d="M68.269,92.163H0V0L68.269,68.269Z" transform="translate(68.269 0)" fill="url(#linear-gradient-8)"/>
            </g>
            <g id="Yellow-3" data-name="Yellow">
              <path id="Path_1266-4" data-name="Path 1266" d="M0,0H68.269V92.163L0,23.894Z" fill="url(#linear-gradient-9)"/>
              <path id="Path_1267-2" data-name="Path 1267" d="M68.269,0H0V92.163L68.269,23.894Z" transform="translate(68.269 0)" fill="url(#linear-gradient-10)"/>
            </g>
          </g>
        </g>
        <g id="Ring_3-2" data-name="Ring_3" transform="translate(25.518 25.593)" clip-path="url(#clip-path-3)">
          <g id="Gradient-3" data-name="Gradient" transform="translate(-17.711 17.482) rotate(-13.246)">
            <rect id="Red-Cyan-4" data-name="Red-Cyan" width="153.606" height="153.606" fill="url(#linear-gradient-6)"/>
            <g id="Blue-4" data-name="Blue" transform="translate(0 49.922)">
              <path id="Path_1266-5" data-name="Path 1266" d="M0,103.684H76.8V0L0,76.8Z" fill="url(#linear-gradient-7)"/>
              <path id="Path_1268-3" data-name="Path 1268" d="M76.8,103.684H0V0L76.8,76.8Z" transform="translate(76.803 0)" fill="url(#linear-gradient-8)"/>
            </g>
            <g id="Yellow-4" data-name="Yellow">
              <path id="Path_1266-6" data-name="Path 1266" d="M0,0H76.8V103.684L0,26.881Z" fill="url(#linear-gradient-9)"/>
              <path id="Path_1267-3" data-name="Path 1267" d="M76.8,0H0V103.684l76.8-76.8Z" transform="translate(76.803 0)" fill="url(#linear-gradient-10)"/>
            </g>
          </g>
        </g>
        <g id="Ring_2-2" data-name="Ring_2" transform="translate(17.001 17.078)" clip-path="url(#clip-path-4)">
          <g id="Gradient-4" data-name="Gradient" transform="translate(-25.399 30.443) rotate(-19.1)">
            <rect id="Red-Cyan-5" data-name="Red-Cyan" width="170.673" height="170.673" fill="url(#linear-gradient-6)"/>
            <g id="Blue-5" data-name="Blue" transform="translate(0 55.469)">
              <path id="Path_1266-7" data-name="Path 1266" d="M0,115.2H85.336V0L0,85.336Z" fill="url(#linear-gradient-7)"/>
              <path id="Path_1268-4" data-name="Path 1268" d="M85.336,115.2H0V0L85.336,85.336Z" transform="translate(85.336 0)" fill="url(#linear-gradient-8)"/>
            </g>
            <g id="Yellow-5" data-name="Yellow">
              <path id="Path_1266-8" data-name="Path 1266" d="M0,0H85.336V115.2L0,29.868Z" fill="url(#linear-gradient-9)"/>
              <path id="Path_1267-4" data-name="Path 1267" d="M85.336,0H0V115.2L85.336,29.868Z" transform="translate(85.336 0)" fill="url(#linear-gradient-10)"/>
            </g>
          </g>
        </g>
        <g id="Ring_1-2" data-name="Ring_1" transform="translate(8.454 8.528)" clip-path="url(#clip-path-5)">
          <g id="Gradient-5" data-name="Gradient" transform="translate(-16.313 14.542) rotate(-9.46)">
            <rect id="Red-Cyan-6" data-name="Red-Cyan" width="187.74" height="187.74" fill="url(#linear-gradient-6)"/>
            <g id="Blue-6" data-name="Blue" transform="translate(0 61.016)">
              <path id="Path_1266-9" data-name="Path 1266" d="M0,126.725H93.87V0L0,93.87Z" fill="url(#linear-gradient-7)"/>
              <path id="Path_1268-5" data-name="Path 1268" d="M93.87,126.725H0V0L93.87,93.87Z" transform="translate(93.87 0)" fill="url(#linear-gradient-8)"/>
            </g>
            <g id="Yellow-6" data-name="Yellow">
              <path id="Path_1266-10" data-name="Path 1266" d="M0,0H93.87V126.725L0,32.855Z" fill="url(#linear-gradient-9)"/>
              <path id="Path_1267-5" data-name="Path 1267" d="M93.87,0H0V126.725l93.87-93.87Z" transform="translate(93.87 0)" fill="url(#linear-gradient-10)"/>
            </g>
          </g>
        </g>
        <g id="Ring_0-2" data-name="Ring_0" clip-path="url(#clip-path-6)">
          <g id="Gradient-6" data-name="Gradient" transform="translate(-2.477 -2.406)">
            <rect id="Red-Cyan-7" data-name="Red-Cyan" width="204.807" height="204.807" transform="translate(0.239 0.239)" fill="url(#linear-gradient-6)"/>
            <g id="Blue-7" data-name="Blue" transform="translate(0 66.717)">
              <path id="Path_1266-11" data-name="Path 1266" d="M0,138.567H102.642V0L0,102.642Z" fill="url(#linear-gradient-7)"/>
              <path id="Path_1268-6" data-name="Path 1268" d="M102.642,138.567H0V0L102.642,102.642Z" transform="translate(102.642)" fill="url(#linear-gradient-8)"/>
            </g>
            <g id="Yellow-7" data-name="Yellow">
              <path id="Path_1266-12" data-name="Path 1266" d="M0,0H102.642V138.567L0,35.925Z" fill="url(#linear-gradient-9)"/>
              <path id="Path_1267-6" data-name="Path 1267" d="M102.642,0H0V138.567L102.642,35.925Z" transform="translate(102.642)" fill="url(#linear-gradient-10)"/>
            </g>
          </g>
        </g>
      </g>
      <g id="Planets" transform="translate(43.131 36.646)">
        <g id="Planet_3" transform="translate(9.568 5.312)">
          <circle id="Background" cx="6.464" cy="6.464" r="6.464" transform="translate(1.333 1.333)" fill="#f26d85"/>
          <path id="Border" d="M65.3,62.955a7.8,7.8,0,1,1,7.8-7.8A7.807,7.807,0,0,1,65.3,62.955Zm0-12.939a5.131,5.131,0,1,0,5.131,5.131A5.14,5.14,0,0,0,65.3,50.016Z" transform="translate(-57.5 -47.36)" fill="#2e2759"/>
        </g>
        <g id="Planet_2" transform="translate(112.324 20.171)">
          <circle id="Background-2" data-name="Background" cx="6.464" cy="6.464" r="6.464" transform="translate(1.333 1.333)" fill="#fa8f3c"/>
          <path id="Border-2" data-name="Border" d="M161.628,76.885a7.8,7.8,0,1,1,7.8-7.8A7.807,7.807,0,0,1,161.628,76.885Zm0-12.939a5.131,5.131,0,1,0,5.131,5.131A5.14,5.14,0,0,0,161.628,63.946Z" transform="translate(-153.83 -61.29)" fill="#2e2759"/>
        </g>
        <g id="Planet_1" transform="translate(130.917)">
          <circle id="Background-3" data-name="Background" cx="3.893" cy="3.893" r="3.893" transform="translate(1.333 1.323)" fill="#82d9d0"/>
          <path id="Border-3" data-name="Border" d="M176.487,52.834a5.227,5.227,0,1,1,5.227-5.227A5.235,5.235,0,0,1,176.487,52.834Zm0-7.8a2.56,2.56,0,1,0,2.56,2.56A2.568,2.568,0,0,0,176.487,45.036Z" transform="translate(-171.26 -42.38)" fill="#2e2759"/>
        </g>
        <g id="Planet_0" transform="translate(0 141.819)">
          <circle id="Background-4" data-name="Background" cx="3.893" cy="3.893" r="3.893" transform="translate(1.333 1.333)" fill="#30a9d9"/>
          <path id="Border-4" data-name="Border" d="M53.757,185.784a5.227,5.227,0,1,1,5.227-5.227A5.235,5.235,0,0,1,53.757,185.784Zm0-7.8a2.56,2.56,0,1,0,2.56,2.56A2.561,2.561,0,0,0,53.757,177.986Z" transform="translate(-48.53 -175.33)" fill="#2e2759"/>
        </g>
      </g>
      <g id="Text" transform="translate(34.769 91.272)">
        <g id="AI" transform="translate(109.572)">
          <path id="I" d="M161.636,93.59a1.536,1.536,0,0,0-1.536,1.536v14.091a1.536,1.536,0,0,0,3.072,0V95.126A1.536,1.536,0,0,0,161.636,93.59Z" transform="translate(-142.297 -93.59)" fill="#2d2859"/>
          <g id="A">
            <path id="Path_1633" data-name="Path 1633" d="M154.642,93.59h-4.406c-4.342,0-6.827,2.805-6.827,7.7v7.926a1.536,1.536,0,0,0,3.072,0v-7.926c0-4.1,2.005-4.619,3.744-4.619h4.406a1.536,1.536,0,0,0,0-3.072Z" transform="translate(-143.41 -93.59)" fill="#2d2859"/>
            <path id="Path_1634" data-name="Path 1634" d="M154.311,98.551a1.536,1.536,0,0,0-1.536,1.536v2.859h-2.859a1.536,1.536,0,1,0,0,3.072h2.859v2.859a1.536,1.536,0,1,0,3.072,0v-8.811a1.536,1.536,0,0,0-1.536-1.536Z" transform="translate(-143.078 -93.26)" fill="#2d2859"/>
          </g>
        </g>
        <g id="Saxony" transform="translate(0 0.064)">
          <path id="dot" d="M138.273,106.45a1.9,1.9,0,1,0,1.973,1.9A1.807,1.807,0,0,0,138.273,106.45Z" transform="translate(-34.312 -92.796)" fill="#2d2859"/>
          <path id="Y" d="M133,94.17l-3.328,4.939-3.3-4.939H121.82l5.846,8.512v7.958h4.011v-7.958l5.856-8.512Z" transform="translate(-35.278 -93.615)" fill="#2d2859"/>
          <path id="Path_1635" data-name="Path 1635" d="M116.126,103.941l-6.4-9.771H105.47v16.47h4.043v-9.8l6.422,9.8h4.2V94.17h-4.011Z" transform="translate(-36.369 -93.615)" fill="#2d2859"/>
          <path id="O" d="M94.154,93.65a8.79,8.79,0,1,0,8.864,8.79A8.592,8.592,0,0,0,94.154,93.65Zm0,13.761a4.975,4.975,0,1,1,4.779-4.971A4.683,4.683,0,0,1,94.154,107.411Z" transform="translate(-37.715 -93.65)" fill="#2d2859"/>
          <path id="X" d="M84.517,94.17H79.866l-2.933,4.918-3.1-4.918H69.135l5.3,7.9L68.89,110.64H73.5l3.275-5.184,3.4,5.184h4.608l-5.515-8.267Z" transform="translate(-38.809 -93.615)" fill="#2d2859"/>
          <path id="A-2" data-name="A" d="M60.352,93.65,52.33,110.675h4.341l.8-1.707h6.507l.821,1.707h4.341L61.066,93.65ZM58.73,106.088l1.92-4.171H60.7l1.9,4.171Z" transform="translate(-39.914 -93.65)" fill="#2d2859"/>
          <path id="S" d="M46.4,97.33A1.6,1.6,0,0,1,48.1,99.037H51.89c-.224-3.051-1.952-5.387-5.6-5.387a5.485,5.485,0,0,0-5.6,5.323c0,2.9,1.536,4.117,4.309,5.11,1.344.469,2.965.821,2.965,2.059a1.449,1.449,0,0,1-1.643,1.429,1.716,1.716,0,0,1-1.707-1.728H40.69c0,2.965,2.037,5.376,5.632,5.376A5.459,5.459,0,0,0,51.9,105.9c0-2.581-1.376-4.224-4.309-5.11-1.4-.416-2.912-.629-2.912-1.867a1.592,1.592,0,0,1,1.728-1.589Z" transform="translate(-40.69 -93.65)" fill="#2d2859"/>
        </g>
      </g>
    </g>
  </g>
</svg>
